<mxfile host="app.diagrams.net" agent="Mozilla/5.0 (Windows NT 10.0; Win64; x64) AppleWebKit/537.36 (KHTML, like Gecko) Chrome/131.0.0.0 Safari/537.36 Edg/131.0.0.0" version="25.0.3">
  <diagram id="C5RBs43oDa-KdzZeNtuy" name="Page-1">
    <mxGraphModel dx="1699" dy="477" grid="1" gridSize="10" guides="1" tooltips="1" connect="1" arrows="1" fold="1" page="1" pageScale="1" pageWidth="827" pageHeight="1169" math="0" shadow="0">
      <root>
        <mxCell id="WIyWlLk6GJQsqaUBKTNV-0" />
        <mxCell id="WIyWlLk6GJQsqaUBKTNV-1" parent="WIyWlLk6GJQsqaUBKTNV-0" />
        <mxCell id="mvioNwK95yMqdUQ73LqQ-36" value="" style="swimlane;fontFamily=Sarabun;fontSource=https%3A%2F%2Ffonts.googleapis.com%2Fcss%3Ffamily%3DSarabun;" parent="WIyWlLk6GJQsqaUBKTNV-1" vertex="1">
          <mxGeometry x="-740" y="60" width="640" height="1670" as="geometry" />
        </mxCell>
        <mxCell id="pXdczCPLqUhGzNIIeVMN-3" style="edgeStyle=orthogonalEdgeStyle;rounded=0;orthogonalLoop=1;jettySize=auto;html=1;" parent="mvioNwK95yMqdUQ73LqQ-36" source="mvioNwK95yMqdUQ73LqQ-35" edge="1">
          <mxGeometry relative="1" as="geometry">
            <mxPoint x="320" y="130" as="targetPoint" />
          </mxGeometry>
        </mxCell>
        <mxCell id="mvioNwK95yMqdUQ73LqQ-35" value="&lt;font data-font-src=&quot;https://fonts.googleapis.com/css?family=Sarabun&quot; face=&quot;Sarabun&quot;&gt;Start&lt;/font&gt;" style="ellipse;whiteSpace=wrap;html=1;" parent="mvioNwK95yMqdUQ73LqQ-36" vertex="1">
          <mxGeometry x="255" y="40" width="130" height="30" as="geometry" />
        </mxCell>
        <mxCell id="80OV8Sp7y3rcq8Tu3NWQ-3" style="edgeStyle=orthogonalEdgeStyle;rounded=0;orthogonalLoop=1;jettySize=auto;html=1;" parent="mvioNwK95yMqdUQ73LqQ-36" source="80OV8Sp7y3rcq8Tu3NWQ-1" edge="1">
          <mxGeometry relative="1" as="geometry">
            <mxPoint x="320" y="280" as="targetPoint" />
          </mxGeometry>
        </mxCell>
        <mxCell id="80OV8Sp7y3rcq8Tu3NWQ-1" value="Declare&lt;br&gt;FILE *file&lt;div&gt;char c&amp;nbsp;&lt;/div&gt;&lt;div&gt;valueInFile is int&lt;/div&gt;&lt;div&gt;userInput is int&lt;/div&gt;&lt;div&gt;sum is int&lt;/div&gt;" style="rounded=0;whiteSpace=wrap;html=1;" parent="mvioNwK95yMqdUQ73LqQ-36" vertex="1">
          <mxGeometry x="235" y="130" width="170" height="110" as="geometry" />
        </mxCell>
        <mxCell id="80OV8Sp7y3rcq8Tu3NWQ-15" style="edgeStyle=orthogonalEdgeStyle;rounded=0;orthogonalLoop=1;jettySize=auto;html=1;entryX=0.5;entryY=0;entryDx=0;entryDy=0;" parent="mvioNwK95yMqdUQ73LqQ-36" source="80OV8Sp7y3rcq8Tu3NWQ-2" target="80OV8Sp7y3rcq8Tu3NWQ-13" edge="1">
          <mxGeometry relative="1" as="geometry" />
        </mxCell>
        <mxCell id="80OV8Sp7y3rcq8Tu3NWQ-2" value="Open file&amp;nbsp;a15-1.txt in read mode" style="rounded=0;whiteSpace=wrap;html=1;" parent="mvioNwK95yMqdUQ73LqQ-36" vertex="1">
          <mxGeometry x="260" y="280" width="120" height="60" as="geometry" />
        </mxCell>
        <mxCell id="PxzvCn-44LVwKa9uHCv1-0" style="edgeStyle=orthogonalEdgeStyle;rounded=0;orthogonalLoop=1;jettySize=auto;html=1;" edge="1" parent="mvioNwK95yMqdUQ73LqQ-36" source="80OV8Sp7y3rcq8Tu3NWQ-13">
          <mxGeometry relative="1" as="geometry">
            <mxPoint x="320" y="470" as="targetPoint" />
          </mxGeometry>
        </mxCell>
        <mxCell id="80OV8Sp7y3rcq8Tu3NWQ-13" value="" style="ellipse;whiteSpace=wrap;html=1;aspect=fixed;" parent="mvioNwK95yMqdUQ73LqQ-36" vertex="1">
          <mxGeometry x="310" y="370" width="20" height="20" as="geometry" />
        </mxCell>
        <mxCell id="80OV8Sp7y3rcq8Tu3NWQ-19" style="edgeStyle=orthogonalEdgeStyle;rounded=0;orthogonalLoop=1;jettySize=auto;html=1;" parent="mvioNwK95yMqdUQ73LqQ-36" source="80OV8Sp7y3rcq8Tu3NWQ-17" edge="1">
          <mxGeometry relative="1" as="geometry">
            <mxPoint x="320" y="1610" as="targetPoint" />
          </mxGeometry>
        </mxCell>
        <mxCell id="80OV8Sp7y3rcq8Tu3NWQ-17" value="close file" style="rounded=0;whiteSpace=wrap;html=1;" parent="mvioNwK95yMqdUQ73LqQ-36" vertex="1">
          <mxGeometry x="260" y="1460" width="120" height="60" as="geometry" />
        </mxCell>
        <mxCell id="80OV8Sp7y3rcq8Tu3NWQ-20" value="&lt;font data-font-src=&quot;https://fonts.googleapis.com/css?family=Sarabun&quot; face=&quot;Sarabun&quot;&gt;End&lt;/font&gt;" style="ellipse;whiteSpace=wrap;html=1;" parent="mvioNwK95yMqdUQ73LqQ-36" vertex="1">
          <mxGeometry x="255" y="1610" width="130" height="30" as="geometry" />
        </mxCell>
        <mxCell id="PxzvCn-44LVwKa9uHCv1-2" style="edgeStyle=orthogonalEdgeStyle;rounded=0;orthogonalLoop=1;jettySize=auto;html=1;" edge="1" parent="mvioNwK95yMqdUQ73LqQ-36" source="PxzvCn-44LVwKa9uHCv1-1">
          <mxGeometry relative="1" as="geometry">
            <mxPoint x="320" y="600" as="targetPoint" />
          </mxGeometry>
        </mxCell>
        <mxCell id="PxzvCn-44LVwKa9uHCv1-1" value="Read file from file store to variable" style="rounded=0;whiteSpace=wrap;html=1;" vertex="1" parent="mvioNwK95yMqdUQ73LqQ-36">
          <mxGeometry x="260" y="470" width="120" height="60" as="geometry" />
        </mxCell>
        <mxCell id="PxzvCn-44LVwKa9uHCv1-4" style="edgeStyle=orthogonalEdgeStyle;rounded=0;orthogonalLoop=1;jettySize=auto;html=1;" edge="1" parent="mvioNwK95yMqdUQ73LqQ-36" source="PxzvCn-44LVwKa9uHCv1-3">
          <mxGeometry relative="1" as="geometry">
            <mxPoint x="320" y="760" as="targetPoint" />
          </mxGeometry>
        </mxCell>
        <mxCell id="PxzvCn-44LVwKa9uHCv1-3" value="Display &quot;Input vale from user to B:&quot;" style="shape=parallelogram;perimeter=parallelogramPerimeter;whiteSpace=wrap;html=1;fixedSize=1;" vertex="1" parent="mvioNwK95yMqdUQ73LqQ-36">
          <mxGeometry x="210" y="600" width="220" height="60" as="geometry" />
        </mxCell>
        <mxCell id="PxzvCn-44LVwKa9uHCv1-6" style="edgeStyle=orthogonalEdgeStyle;rounded=0;orthogonalLoop=1;jettySize=auto;html=1;" edge="1" parent="mvioNwK95yMqdUQ73LqQ-36" source="PxzvCn-44LVwKa9uHCv1-5">
          <mxGeometry relative="1" as="geometry">
            <mxPoint x="320" y="880" as="targetPoint" />
          </mxGeometry>
        </mxCell>
        <mxCell id="PxzvCn-44LVwKa9uHCv1-5" value="Read input from user then store to variable" style="shape=parallelogram;perimeter=parallelogramPerimeter;whiteSpace=wrap;html=1;fixedSize=1;" vertex="1" parent="mvioNwK95yMqdUQ73LqQ-36">
          <mxGeometry x="230" y="760" width="180" height="60" as="geometry" />
        </mxCell>
        <mxCell id="PxzvCn-44LVwKa9uHCv1-8" style="edgeStyle=orthogonalEdgeStyle;rounded=0;orthogonalLoop=1;jettySize=auto;html=1;" edge="1" parent="mvioNwK95yMqdUQ73LqQ-36" source="PxzvCn-44LVwKa9uHCv1-7">
          <mxGeometry relative="1" as="geometry">
            <mxPoint x="320" y="1020" as="targetPoint" />
          </mxGeometry>
        </mxCell>
        <mxCell id="PxzvCn-44LVwKa9uHCv1-7" value="sum = valueInFile + userInput" style="rounded=0;whiteSpace=wrap;html=1;" vertex="1" parent="mvioNwK95yMqdUQ73LqQ-36">
          <mxGeometry x="225" y="880" width="190" height="60" as="geometry" />
        </mxCell>
        <mxCell id="PxzvCn-44LVwKa9uHCv1-12" style="edgeStyle=orthogonalEdgeStyle;rounded=0;orthogonalLoop=1;jettySize=auto;html=1;" edge="1" parent="mvioNwK95yMqdUQ73LqQ-36" source="PxzvCn-44LVwKa9uHCv1-9">
          <mxGeometry relative="1" as="geometry">
            <mxPoint x="320" y="1180" as="targetPoint" />
          </mxGeometry>
        </mxCell>
        <mxCell id="PxzvCn-44LVwKa9uHCv1-9" value="Display &quot;Read File to A is&quot; + valueInFile" style="shape=parallelogram;perimeter=parallelogramPerimeter;whiteSpace=wrap;html=1;fixedSize=1;" vertex="1" parent="mvioNwK95yMqdUQ73LqQ-36">
          <mxGeometry x="180" y="1020" width="280" height="60" as="geometry" />
        </mxCell>
        <mxCell id="PxzvCn-44LVwKa9uHCv1-13" style="edgeStyle=orthogonalEdgeStyle;rounded=0;orthogonalLoop=1;jettySize=auto;html=1;" edge="1" parent="mvioNwK95yMqdUQ73LqQ-36" source="PxzvCn-44LVwKa9uHCv1-11">
          <mxGeometry relative="1" as="geometry">
            <mxPoint x="320" y="1330" as="targetPoint" />
          </mxGeometry>
        </mxCell>
        <mxCell id="PxzvCn-44LVwKa9uHCv1-11" value="Display &quot;Input value from user is&quot; + userInput" style="shape=parallelogram;perimeter=parallelogramPerimeter;whiteSpace=wrap;html=1;fixedSize=1;" vertex="1" parent="mvioNwK95yMqdUQ73LqQ-36">
          <mxGeometry x="180" y="1180" width="280" height="60" as="geometry" />
        </mxCell>
        <mxCell id="PxzvCn-44LVwKa9uHCv1-15" style="edgeStyle=orthogonalEdgeStyle;rounded=0;orthogonalLoop=1;jettySize=auto;html=1;" edge="1" parent="mvioNwK95yMqdUQ73LqQ-36" source="PxzvCn-44LVwKa9uHCv1-14">
          <mxGeometry relative="1" as="geometry">
            <mxPoint x="320" y="1460" as="targetPoint" />
          </mxGeometry>
        </mxCell>
        <mxCell id="PxzvCn-44LVwKa9uHCv1-14" value="Display &quot;Answer&quot; + sum" style="shape=parallelogram;perimeter=parallelogramPerimeter;whiteSpace=wrap;html=1;fixedSize=1;" vertex="1" parent="mvioNwK95yMqdUQ73LqQ-36">
          <mxGeometry x="180" y="1330" width="280" height="60" as="geometry" />
        </mxCell>
      </root>
    </mxGraphModel>
  </diagram>
</mxfile>
